<svg xmlns="http://www.w3.org/2000/svg" viewBox="0 0 640 330" width="640" height="330">
<rect width="640" height="330" fill="#FAF5EC"/>
<line x1="30" x2="634" y1="218.0" y2="218.0" stroke="#D9D9D4" stroke-width="1"/>
<text x="24" y="220.5" text-anchor="end" font-family="Inter" font-size="7" fill="#5C5C5C">30%</text>
<line x1="30" x2="634" y1="178.4" y2="178.4" stroke="#D9D9D4" stroke-width="1"/>
<text x="24" y="180.9" text-anchor="end" font-family="Inter" font-size="7" fill="#5C5C5C">40%</text>
<line x1="30" x2="634" y1="138.8" y2="138.8" stroke="#D9D9D4" stroke-width="1"/>
<text x="24" y="141.3" text-anchor="end" font-family="Inter" font-size="7" fill="#5C5C5C">50%</text>
<line x1="30" x2="634" y1="99.2" y2="99.2" stroke="#D9D9D4" stroke-width="1"/>
<text x="24" y="101.7" text-anchor="end" font-family="Inter" font-size="7" fill="#5C5C5C">60%</text>
<line x1="30" x2="634" y1="59.6" y2="59.6" stroke="#D9D9D4" stroke-width="1"/>
<text x="24" y="62.1" text-anchor="end" font-family="Inter" font-size="7" fill="#5C5C5C">70%</text>
<line x1="30" x2="634" y1="20.0" y2="20.0" stroke="#D9D9D4" stroke-width="1"/>
<text x="24" y="22.5" text-anchor="end" font-family="Inter" font-size="7" fill="#5C5C5C">80%</text>
<line x1="30" x2="30" y1="20" y2="218" stroke="#E2E5E0" stroke-width="1"/>
<polyline points="55.17,142.76 105.5,142.76 155.83,138.8 206.17,134.84 256.5,154.64 306.83,126.92 357.17,111.08 407.5,99.2 457.83,83.36 508.17,87.32 558.5,91.28 608.83,87.32" fill="none" stroke="#E14D6E" stroke-width="1.5" stroke-linejoin="round" stroke-linecap="round"/>
<polyline points="55.17,158.6 105.5,126.92 155.83,158.6 206.17,130.88 256.5,146.72 306.83,126.92 357.17,115.04 407.5,111.08 457.83,99.2 508.17,99.2 558.5,119.0 608.83,83.36" fill="none" stroke="#2F62B4" stroke-width="1.5" stroke-linejoin="round" stroke-linecap="round"/>
<polyline points="55.17,170.48 105.5,150.68 155.83,150.68 206.17,146.72 256.5,142.76 306.83,138.8 357.17,122.96 407.5,103.16 457.83,91.28 508.17,95.24 558.5,111.08 608.83,75.44" fill="none" stroke="#3AAFA4" stroke-width="1.5" stroke-linejoin="round" stroke-linecap="round"/>
<polyline points="55.17,186.32 105.5,154.64 155.83,162.56 206.17,162.56 256.5,186.32 306.83,154.64 357.17,154.64 407.5,130.88 457.83,170.48 508.17,154.64 558.5,138.8 608.83,99.2" fill="none" stroke="#C07BE0" stroke-width="1.5" stroke-linejoin="round" stroke-linecap="round"/>
<polyline points="55.17,119.0 105.5,119.0 155.83,107.12 206.17,103.16 256.5,99.2 306.83,87.32 357.17,87.32 407.5,67.52 457.83,63.56 508.17,63.56 558.5,55.64 608.83,43.76" fill="none" stroke="#0A6B3D" stroke-width="2.6" stroke-linejoin="round" stroke-linecap="round"/>
<circle cx="55.17" cy="142.76" r="2.6" fill="#E14D6E" stroke="#FAF5EC" stroke-width="1.4"/>
<circle cx="105.5" cy="142.76" r="2.6" fill="#E14D6E" stroke="#FAF5EC" stroke-width="1.4"/>
<circle cx="155.83" cy="138.8" r="2.6" fill="#E14D6E" stroke="#FAF5EC" stroke-width="1.4"/>
<circle cx="206.17" cy="134.84" r="2.6" fill="#E14D6E" stroke="#FAF5EC" stroke-width="1.4"/>
<circle cx="256.5" cy="154.64" r="2.6" fill="#E14D6E" stroke="#FAF5EC" stroke-width="1.4"/>
<circle cx="306.83" cy="126.92" r="2.6" fill="#E14D6E" stroke="#FAF5EC" stroke-width="1.4"/>
<circle cx="357.17" cy="111.08" r="2.6" fill="#E14D6E" stroke="#FAF5EC" stroke-width="1.4"/>
<circle cx="407.5" cy="99.2" r="2.6" fill="#E14D6E" stroke="#FAF5EC" stroke-width="1.4"/>
<circle cx="457.83" cy="83.36" r="2.6" fill="#E14D6E" stroke="#FAF5EC" stroke-width="1.4"/>
<circle cx="508.17" cy="87.32" r="2.6" fill="#E14D6E" stroke="#FAF5EC" stroke-width="1.4"/>
<circle cx="558.5" cy="91.28" r="2.6" fill="#E14D6E" stroke="#FAF5EC" stroke-width="1.4"/>
<circle cx="608.83" cy="87.32" r="2.6" fill="#E14D6E" stroke="#FAF5EC" stroke-width="1.4"/>
<circle cx="55.17" cy="158.6" r="2.6" fill="#2F62B4" stroke="#FAF5EC" stroke-width="1.4"/>
<circle cx="105.5" cy="126.92" r="2.6" fill="#2F62B4" stroke="#FAF5EC" stroke-width="1.4"/>
<circle cx="155.83" cy="158.6" r="2.6" fill="#2F62B4" stroke="#FAF5EC" stroke-width="1.4"/>
<circle cx="206.17" cy="130.88" r="2.6" fill="#2F62B4" stroke="#FAF5EC" stroke-width="1.4"/>
<circle cx="256.5" cy="146.72" r="2.6" fill="#2F62B4" stroke="#FAF5EC" stroke-width="1.4"/>
<circle cx="306.83" cy="126.92" r="2.6" fill="#2F62B4" stroke="#FAF5EC" stroke-width="1.4"/>
<circle cx="357.17" cy="115.04" r="2.6" fill="#2F62B4" stroke="#FAF5EC" stroke-width="1.4"/>
<circle cx="407.5" cy="111.08" r="2.6" fill="#2F62B4" stroke="#FAF5EC" stroke-width="1.4"/>
<circle cx="457.83" cy="99.2" r="2.6" fill="#2F62B4" stroke="#FAF5EC" stroke-width="1.4"/>
<circle cx="508.17" cy="99.2" r="2.6" fill="#2F62B4" stroke="#FAF5EC" stroke-width="1.4"/>
<circle cx="558.5" cy="119.0" r="2.6" fill="#2F62B4" stroke="#FAF5EC" stroke-width="1.4"/>
<circle cx="608.83" cy="83.36" r="2.6" fill="#2F62B4" stroke="#FAF5EC" stroke-width="1.4"/>
<circle cx="55.17" cy="170.48" r="2.6" fill="#3AAFA4" stroke="#FAF5EC" stroke-width="1.4"/>
<circle cx="105.5" cy="150.68" r="2.6" fill="#3AAFA4" stroke="#FAF5EC" stroke-width="1.4"/>
<circle cx="155.83" cy="150.68" r="2.6" fill="#3AAFA4" stroke="#FAF5EC" stroke-width="1.4"/>
<circle cx="206.17" cy="146.72" r="2.6" fill="#3AAFA4" stroke="#FAF5EC" stroke-width="1.4"/>
<circle cx="256.5" cy="142.76" r="2.6" fill="#3AAFA4" stroke="#FAF5EC" stroke-width="1.4"/>
<circle cx="306.83" cy="138.8" r="2.6" fill="#3AAFA4" stroke="#FAF5EC" stroke-width="1.4"/>
<circle cx="357.17" cy="122.96" r="2.6" fill="#3AAFA4" stroke="#FAF5EC" stroke-width="1.4"/>
<circle cx="407.5" cy="103.16" r="2.6" fill="#3AAFA4" stroke="#FAF5EC" stroke-width="1.4"/>
<circle cx="457.83" cy="91.28" r="2.6" fill="#3AAFA4" stroke="#FAF5EC" stroke-width="1.4"/>
<circle cx="508.17" cy="95.24" r="2.6" fill="#3AAFA4" stroke="#FAF5EC" stroke-width="1.4"/>
<circle cx="558.5" cy="111.08" r="2.6" fill="#3AAFA4" stroke="#FAF5EC" stroke-width="1.4"/>
<circle cx="608.83" cy="75.44" r="2.6" fill="#3AAFA4" stroke="#FAF5EC" stroke-width="1.4"/>
<circle cx="55.17" cy="186.32" r="2.6" fill="#C07BE0" stroke="#FAF5EC" stroke-width="1.4"/>
<circle cx="105.5" cy="154.64" r="2.6" fill="#C07BE0" stroke="#FAF5EC" stroke-width="1.4"/>
<circle cx="155.83" cy="162.56" r="2.6" fill="#C07BE0" stroke="#FAF5EC" stroke-width="1.4"/>
<circle cx="206.17" cy="162.56" r="2.6" fill="#C07BE0" stroke="#FAF5EC" stroke-width="1.4"/>
<circle cx="256.5" cy="186.32" r="2.6" fill="#C07BE0" stroke="#FAF5EC" stroke-width="1.4"/>
<circle cx="306.83" cy="154.64" r="2.6" fill="#C07BE0" stroke="#FAF5EC" stroke-width="1.4"/>
<circle cx="357.17" cy="154.64" r="2.6" fill="#C07BE0" stroke="#FAF5EC" stroke-width="1.4"/>
<circle cx="407.5" cy="130.88" r="2.6" fill="#C07BE0" stroke="#FAF5EC" stroke-width="1.4"/>
<circle cx="457.83" cy="170.48" r="2.6" fill="#C07BE0" stroke="#FAF5EC" stroke-width="1.4"/>
<circle cx="508.17" cy="154.64" r="2.6" fill="#C07BE0" stroke="#FAF5EC" stroke-width="1.4"/>
<circle cx="558.5" cy="138.8" r="2.6" fill="#C07BE0" stroke="#FAF5EC" stroke-width="1.4"/>
<circle cx="608.83" cy="99.2" r="2.6" fill="#C07BE0" stroke="#FAF5EC" stroke-width="1.4"/>
<circle cx="55.17" cy="119.0" r="3.6" fill="#0A6B3D" stroke="#FAF5EC" stroke-width="1.8"/>
<circle cx="105.5" cy="119.0" r="3.6" fill="#0A6B3D" stroke="#FAF5EC" stroke-width="1.8"/>
<circle cx="155.83" cy="107.12" r="3.6" fill="#0A6B3D" stroke="#FAF5EC" stroke-width="1.8"/>
<circle cx="206.17" cy="103.16" r="3.6" fill="#0A6B3D" stroke="#FAF5EC" stroke-width="1.8"/>
<circle cx="256.5" cy="99.2" r="3.6" fill="#0A6B3D" stroke="#FAF5EC" stroke-width="1.8"/>
<circle cx="306.83" cy="87.32" r="3.6" fill="#0A6B3D" stroke="#FAF5EC" stroke-width="1.8"/>
<circle cx="357.17" cy="87.32" r="3.6" fill="#0A6B3D" stroke="#FAF5EC" stroke-width="1.8"/>
<circle cx="407.5" cy="67.52" r="3.6" fill="#0A6B3D" stroke="#FAF5EC" stroke-width="1.8"/>
<circle cx="457.83" cy="63.56" r="3.6" fill="#0A6B3D" stroke="#FAF5EC" stroke-width="1.8"/>
<circle cx="508.17" cy="63.56" r="3.6" fill="#0A6B3D" stroke="#FAF5EC" stroke-width="1.8"/>
<circle cx="558.5" cy="55.64" r="3.6" fill="#0A6B3D" stroke="#FAF5EC" stroke-width="1.8"/>
<circle cx="608.83" cy="43.76" r="3.6" fill="#0A6B3D" stroke="#FAF5EC" stroke-width="1.8"/>
<text x="55.17" y="111.0" text-anchor="middle" font-family="Inter" font-size="8" font-weight="500" fill="#0A6B3D">55%</text>
<text x="105.5" y="111.0" text-anchor="middle" font-family="Inter" font-size="8" font-weight="500" fill="#0A6B3D">55%</text>
<text x="155.83" y="99.12" text-anchor="middle" font-family="Inter" font-size="8" font-weight="500" fill="#0A6B3D">58%</text>
<text x="206.17" y="95.16" text-anchor="middle" font-family="Inter" font-size="8" font-weight="500" fill="#0A6B3D">59%</text>
<text x="256.5" y="91.2" text-anchor="middle" font-family="Inter" font-size="8" font-weight="500" fill="#0A6B3D">60%</text>
<text x="306.83" y="79.32" text-anchor="middle" font-family="Inter" font-size="8" font-weight="500" fill="#0A6B3D">63%</text>
<text x="357.17" y="79.32" text-anchor="middle" font-family="Inter" font-size="8" font-weight="500" fill="#0A6B3D">63%</text>
<text x="407.5" y="59.519999999999996" text-anchor="middle" font-family="Inter" font-size="8" font-weight="500" fill="#0A6B3D">68%</text>
<text x="457.83" y="55.56" text-anchor="middle" font-family="Inter" font-size="8" font-weight="500" fill="#0A6B3D">69%</text>
<text x="508.17" y="55.56" text-anchor="middle" font-family="Inter" font-size="8" font-weight="500" fill="#0A6B3D">69%</text>
<text x="558.5" y="47.64" text-anchor="middle" font-family="Inter" font-size="8" font-weight="500" fill="#0A6B3D">71%</text>
<text x="608.83" y="35.76" text-anchor="middle" font-family="Inter" font-size="8" font-weight="500" fill="#0A6B3D">74%</text>
<text transform="translate(52.17,227) rotate(-45)" text-anchor="end" font-family="Inter" font-size="7.6" fill="#191919">Zaufanie do marki</text>
<text transform="translate(102.5,227) rotate(-45)" text-anchor="end" font-family="Inter" font-size="7.6" fill="#191919">Odpowiedni stosunek ceny do jakości</text>
<text transform="translate(152.83,227) rotate(-45)" text-anchor="end" font-family="Inter" font-size="7.6" fill="#191919">Dogodne lokalizacje</text>
<text transform="translate(203.17,227) rotate(-45)" text-anchor="end" font-family="Inter" font-size="7.6" fill="#191919">Atrakcyjny wygląd salonu</text>
<text transform="translate(253.5,227) rotate(-45)" text-anchor="end" font-family="Inter" font-size="7.6" fill="#191919">Bezpłatne testowanie aparatów w domu</text>
<text transform="translate(303.83,227) rotate(-45)" text-anchor="end" font-family="Inter" font-size="7.6" fill="#191919">Szybkie terminy wizyt</text>
<text transform="translate(354.17,227) rotate(-45)" text-anchor="end" font-family="Inter" font-size="7.6" fill="#191919">Gwarancja i opieka posprzedażowa</text>
<text transform="translate(404.5,227) rotate(-45)" text-anchor="end" font-family="Inter" font-size="7.6" fill="#191919">Jakość obsługi</text>
<text transform="translate(454.83,227) rotate(-45)" text-anchor="end" font-family="Inter" font-size="7.6" fill="#191919">Wykwalifikowani audiolodzy</text>
<text transform="translate(505.17,227) rotate(-45)" text-anchor="end" font-family="Inter" font-size="7.6" fill="#191919">Najwyższa jakość dźwięku</text>
<text transform="translate(555.5,227) rotate(-45)" text-anchor="end" font-family="Inter" font-size="7.6" fill="#191919">Łatwe umawianie wizyt</text>
<text transform="translate(605.83,227) rotate(-45)" text-anchor="end" font-family="Inter" font-size="7.6" fill="#191919">Sprawdzona technologia</text>
</svg>