<svg id="Grupo_82" data-name="Grupo 82" xmlns="http://www.w3.org/2000/svg" xmlns:xlink="http://www.w3.org/1999/xlink" width="226.708" height="63.301" viewBox="0 0 226.708 63.301">
  <defs>
    <clipPath id="clip-path">
      <rect id="Rectángulo_70" data-name="Rectángulo 70" width="226.701" height="63.295" transform="translate(0 0)" fill="none"/>
    </clipPath>
    <clipPath id="clip-path-2">
      <rect id="Rectángulo_71" data-name="Rectángulo 71" width="226.708" height="63.301" transform="translate(0 0)" fill="none"/>
    </clipPath>
  </defs>
  <path id="Trazado_8272" data-name="Trazado 8272" d="M69.795,15.186V41.438h-2.9l-.029-20.026L57.79,38.784h-1.4l-.311-.594L47.284,21.412V41.438h-2.9V15.186h2.988l9.749,18.621,9.684-18.621Z" fill="#122a5f"/>
  <path id="Trazado_8273" data-name="Trazado 8273" d="M205.158,41.561h-3.225l-3.354-7.287H185.494l-3.32,7.287h-3.256l11.959-26.127h2.181l.3.642Zm-18.35-10.185h10.41l-5.244-11.388Z" fill="#122a5f"/>
  <g id="Grupo_79" data-name="Grupo 79">
    <g id="Grupo_78" data-name="Grupo 78" clip-path="url(#clip-path)">
      <path id="Trazado_8274" data-name="Trazado 8274" d="M72.468,56.749V53.834a25.882,25.882,0,0,0,12.807-5.542,28.762,28.762,0,0,1-4.386-5.823,1.852,1.852,0,0,1-1.09-2.105A28.165,28.165,0,0,1,77.182,29.6a1.85,1.85,0,0,1,.006-2.579,28.136,28.136,0,0,1,2.667-10.756,1.852,1.852,0,0,1,1.088-2.08,28.751,28.751,0,0,1,4.333-5.728A25.882,25.882,0,0,0,72.469,2.915V0A28.918,28.918,0,0,1,87.408,6.479,28.931,28.931,0,0,1,102.223.016V2.933A25.878,25.878,0,0,0,89.54,8.459a28.669,28.669,0,0,1,4.331,5.727,1.852,1.852,0,0,1,1.088,2.08,28.154,28.154,0,0,1,2.673,10.9,1.837,1.837,0,0,1,0,2.29,28.163,28.163,0,0,1-2.71,11.1,1.834,1.834,0,0,1-.948,1.819,28.709,28.709,0,0,1-4.44,5.921,25.888,25.888,0,0,0,12.686,5.526v2.916A28.933,28.933,0,0,1,87.4,50.276a28.928,28.928,0,0,1-14.939,6.478M84.1,42.2a25.789,25.789,0,0,0,3.31,4.148A25.8,25.8,0,0,0,90.716,42.2Zm-1.321-2.892h9.141a1.834,1.834,0,0,1,.55-.306A25.307,25.307,0,0,0,94.74,29.76H80.073a25.282,25.282,0,0,0,2.3,9.307,1.839,1.839,0,0,1,.4.244M80.08,26.867H94.73A25.286,25.286,0,0,0,92.4,17.592a1.827,1.827,0,0,1-.419-.253H82.84a1.822,1.822,0,0,1-.424.258,25.273,25.273,0,0,0-2.332,9.269m4.077-12.419h6.5a25.793,25.793,0,0,0-3.248-4.05,25.792,25.792,0,0,0-3.248,4.05" fill="#122a5f"/>
      <path id="Trazado_8275" data-name="Trazado 8275" d="M138.79,41.787a1.881,1.881,0,0,1-1.453-3.046V18.221a1.87,1.87,0,1,1,2.9,0V38.735a1.881,1.881,0,0,1-1.451,3.049" fill="#122a5f"/>
      <path id="Trazado_8276" data-name="Trazado 8276" d="M163.411,41.665c-9.89.253-16.916-11.29-11.573-19.789,4.454-7.695,15.293-8.736,21.4-2.41l-2.029,2.022c-6.386-6.812-18.282-2.467-18.326,6.992.076,9.479,11.852,13.77,18.3,6.993l2.109,1.946a13.852,13.852,0,0,1-9.888,4.246" fill="#122a5f"/>
      <path id="Trazado_8277" data-name="Trazado 8277" d="M226.7,41.561H213.1V15.434H216V38.663h10.706Z" fill="#122a5f"/>
      <path id="Trazado_8278" data-name="Trazado 8278" d="M10.564,41.438H0l.121-2.893c3.753-.3,12.431.909,15.678-1.381a10.009,10.009,0,0,0,0-17.581c-3.209-2.3-12.046-1.1-15.75-1.373v-2.9c4.528.27,13.263-.975,17.191,1.755,11.814,6.782,6.781,24.348-6.674,24.376" fill="#122a5f"/>
      <path id="Trazado_8279" data-name="Trazado 8279" d="M33.058,41.6A1.88,1.88,0,0,1,31.6,38.559V18.038a1.869,1.869,0,1,1,2.9,0V38.555A1.88,1.88,0,0,1,33.054,41.6" fill="#122a5f"/>
      <path id="Trazado_8280" data-name="Trazado 8280" d="M116.066,41.562H105.507l.111-2.894c3.75-.3,12.439.909,15.681-1.381a10.006,10.006,0,0,0,0-17.577c-3.206-2.295-12.047-1.1-15.75-1.375v-2.9c4.526.266,13.268-.973,17.19,1.756,8.815,4.783,8.822,17.827,0,22.615a13.251,13.251,0,0,1-6.674,1.756" fill="#122a5f"/>
      <path id="Trazado_8281" data-name="Trazado 8281" d="M107.22,29.917a1.553,1.553,0,1,1,1.549-1.549,1.553,1.553,0,0,1-1.549,1.549" fill="#122a5f"/>
      <path id="Trazado_8282" data-name="Trazado 8282" d="M1.919,29.391a1.028,1.028,0,0,0,0-2.055,1.028,1.028,0,0,0,0,2.055" fill="#122a5f"/>
      <path id="Trazado_8283" data-name="Trazado 8283" d="M108.765,58.157h-2.184v5.085h2.184a2.547,2.547,0,1,0,0-5.085m-.039,3.995h-.969v-2.9h.969a1.456,1.456,0,1,1,0,2.9" fill="#122a5f"/>
      <path id="Trazado_8284" data-name="Trazado 8284" d="M132.4,61.074l-2.347-2.917h-.923v5.087h1.178v-2.92l2.349,2.92h.921V58.157H132.4Z" fill="#122a5f"/>
      <path id="Trazado_8285" data-name="Trazado 8285" d="M125.12,59.21a1.7,1.7,0,0,1,1.327.632l.763-.763c-1.4-1.887-4.972-.844-4.82,1.621-.124,2.385,3.077,3.384,4.681,1.875V60.41H125.92v1.6c-2.372,1.1-3.463-2.652-.8-2.8" fill="#122a5f"/>
      <path id="Trazado_8286" data-name="Trazado 8286" d="M118.227,58.157l-2.3,5.087h1.25l.5-1.143h2.081l.5,1.143h1.265l-2.31-5.087Zm-.092,2.9.582-1.321.581,1.321Z" fill="#122a5f"/>
      <rect id="Rectángulo_67" data-name="Rectángulo 67" width="1.176" height="5.087" transform="translate(113.357 58.157)" fill="#122a5f"/>
      <path id="Trazado_8287" data-name="Trazado 8287" d="M155.417,60.318l-1.312-2.16h-1.311l2.015,3.307v1.78h1.17V61.477l2.015-3.319h-1.258Z" fill="#122a5f"/>
      <path id="Trazado_8288" data-name="Trazado 8288" d="M164.067,58.157H162.6l-2.1,2.163V58.157h-1.178v5.087H160.5V61.909l.557-.566,1.639,1.9h1.44l-2.277-2.761Z" fill="#122a5f"/>
      <path id="Trazado_8289" data-name="Trazado 8289" d="M147.527,59.249h1.564v3.994h1.17V59.249h1.562V58.156h-4.3Z" fill="#122a5f"/>
      <path id="Trazado_8290" data-name="Trazado 8290" d="M167.176,58.157l-2.3,5.087h1.25l.5-1.143H168.7l.5,1.143h1.265l-2.312-5.087Zm-.093,2.9.582-1.321.581,1.321Z" fill="#122a5f"/>
      <path id="Trazado_8291" data-name="Trazado 8291" d="M138.129,58.106a2.6,2.6,0,1,0-.322,5.19,2.471,2.471,0,0,0,.322,0,2.6,2.6,0,0,0,.322-5.19,2.471,2.471,0,0,0-.322,0m0,4.085a1.491,1.491,0,1,1,1.49-1.49,1.49,1.49,0,0,1-1.49,1.49" fill="#122a5f"/>
      <path id="Trazado_8292" data-name="Trazado 8292" d="M144.492,60.177c-2.25-.46-.155-1.659,1.247-.492l.416-1.01c-1.24-1.044-3.912-.6-3.8,1-.025,1.83,2.461,1.251,2.762,2.1,0,.4-.6.44-.865.44a2.138,2.138,0,0,1-1.592-.7l-.473,1c1.1,1.245,4.2.96,4.092-.783,0-1.128-1.035-1.378-1.79-1.561" fill="#122a5f"/>
      <path id="Trazado_8293" data-name="Trazado 8293" d="M198.877,53.257l-2.35-2.916H195.6v5.085h1.176V52.508l2.349,2.918h.921V50.341h-1.176Z" fill="#122a5f"/>
      <path id="Trazado_8294" data-name="Trazado 8294" d="M165.254,50.341v5.085H168.9V54.335H166.43V50.341Z" fill="#122a5f"/>
      <path id="Trazado_8295" data-name="Trazado 8295" d="M193.87,51.136v-.8h-4.205v1.09H192.2l-2.577,3.195v.8h4.336v-1.09H191.3Z" fill="#122a5f"/>
      <rect id="Rectángulo_68" data-name="Rectángulo 68" width="1.174" height="5.085" transform="translate(170.483 50.341)" fill="#122a5f"/>
      <path id="Trazado_8296" data-name="Trazado 8296" d="M203.76,50.341l-2.3,5.085h1.249l.5-1.141h2.081l.5,1.141h1.264l-2.312-5.085Zm-.092,2.9.582-1.321.581,1.321Z" fill="#122a5f"/>
      <rect id="Rectángulo_69" data-name="Rectángulo 69" width="1.174" height="5.085" transform="translate(180.473 50.341)" fill="#122a5f"/>
      <path id="Trazado_8297" data-name="Trazado 8297" d="M153.181,54.284l.5,1.141h1.264l-2.31-5.084h-.983l-2.3,5.084H150.6l.5-1.141Zm-1.04-2.366.581,1.322h-1.161Z" fill="#122a5f"/>
      <path id="Trazado_8298" data-name="Trazado 8298" d="M139.592,52.5,138.28,50.34h-1.312l2.015,3.307v1.779h1.171V53.66l2.016-3.318h-1.261Z" fill="#122a5f"/>
      <path id="Trazado_8299" data-name="Trazado 8299" d="M147.945,50.341h-1.176v2.918l-2.349-2.918H143.5v5.085h1.176V52.508l2.347,2.918h.923Z" fill="#122a5f"/>
      <path id="Trazado_8300" data-name="Trazado 8300" d="M159.183,50.341v5.085h1.176V54.094l.558-.568,1.639,1.9h1.439l-2.277-2.757,2.207-2.328h-1.463l-2.1,2.163V50.341Z" fill="#122a5f"/>
      <path id="Trazado_8301" data-name="Trazado 8301" d="M177.106,53.257l-2.349-2.918h-.921v5.085h1.176V52.506l2.347,2.918h.924V50.341h-1.176Z" fill="#122a5f"/>
      <path id="Trazado_8302" data-name="Trazado 8302" d="M124.711,52.881c-.043-2.759-2.824-2.613-4.909-2.542v5.084c2.087.072,4.866.215,4.909-2.542m-2.763,1.452h-.97v-2.9h.97a1.456,1.456,0,1,1,0,2.9" fill="#122a5f"/>
      <path id="Trazado_8303" data-name="Trazado 8303" d="M186.206,51.391a1.577,1.577,0,0,1,1.278.652l.794-.771c-1.388-1.9-4.908-.837-4.776,1.61-.131,2.454,3.389,3.517,4.776,1.6l-.794-.769a1.544,1.544,0,0,1-2.806-.833,1.46,1.46,0,0,1,1.428-1.491c.034,0,.068,0,.1,0" fill="#122a5f"/>
      <path id="Trazado_8304" data-name="Trazado 8304" d="M117.893,51.434V50.342h-3.744v5.084h3.835V54.334h-2.658v-.948h2.288V52.308h-2.288v-.874Z" fill="#122a5f"/>
      <path id="Trazado_8305" data-name="Trazado 8305" d="M136.132,54.482l-.8-.767a1.527,1.527,0,1,1,0-1.671l.8-.773c-1.391-1.906-4.909-.836-4.777,1.611-.13,2.454,3.39,3.516,4.777,1.6" fill="#122a5f"/>
      <path id="Trazado_8306" data-name="Trazado 8306" d="M129.375,50.341,128.058,52.5l-1.312-2.161h-1.312l2.017,3.307v1.778h1.167V53.66l2.016-3.319Z" fill="#122a5f"/>
      <path id="Trazado_8307" data-name="Trazado 8307" d="M111.009,50.341l-1.73,2.952-1.754-2.952h-.945v5.085h1.149V52.81l1.238,2.063h.6l1.24-2.08v2.633h1.149l-.007-5.085Z" fill="#122a5f"/>
    </g>
  </g>
  <g id="Grupo_81" data-name="Grupo 81">
    <g id="Grupo_80" data-name="Grupo 80" clip-path="url(#clip-path-2)">
      <path id="Trazado_8308" data-name="Trazado 8308" d="M1.928,29.865a1.553,1.553,0,1,1,1.549-1.549,1.553,1.553,0,0,1-1.549,1.549" fill="#122a5f"/>
    </g>
  </g>
</svg>
