<svg xmlns="http://www.w3.org/2000/svg" viewBox="0 0 1024 1024">
  <rect width="1024" height="1024" fill="#F4F0E8"/>
  <g fill="#211E19">
    <rect x="330" y="490" width="364" height="44" rx="22"/>
  </g>
  <g id="ring" fill="#211E19">
    <circle cx="852" cy="512" r="22" fill="#1E7B3C"/>
    <circle cx="840.9" cy="600.0" r="22"/>
    <circle cx="808.3" cy="682.0" r="22"/>
    <circle cx="756.4" cy="752.4" r="22"/>
    <circle cx="688.0" cy="806.3" r="22"/>
    <circle cx="607.5" cy="840.0" r="22"/>
    <circle cx="520.9" cy="851.9" r="22"/>
    <circle cx="434.0" cy="840.9" r="22"/>
    <circle cx="352.0" cy="808.3" r="22"/>
    <circle cx="281.6" cy="756.4" r="22"/>
    <circle cx="227.7" cy="688.0" r="22"/>
    <circle cx="194.0" cy="607.5" r="22"/>
    <circle cx="182.1" cy="520.9" r="22"/>
    <circle cx="193.1" cy="434.0" r="22"/>
    <circle cx="225.7" cy="352.0" r="22"/>
    <circle cx="277.6" cy="281.6" r="22"/>
    <circle cx="346.0" cy="227.7" r="22"/>
    <circle cx="426.5" cy="194.0" r="22"/>
    <circle cx="513.1" cy="182.1" r="22"/>
    <circle cx="600.0" cy="193.1" r="22"/>
    <circle cx="682.0" cy="225.7" r="22"/>
    <circle cx="752.4" cy="277.6" r="22"/>
    <circle cx="806.3" cy="346.0" r="22"/>
    <circle cx="840.0" cy="426.5" r="22"/>
  </g>
</svg>
