<svg width="442" height="90" viewBox="0 0 442 90" fill="none" xmlns="http://www.w3.org/2000/svg">
<path d="M436.847 60.0386C432.021 60.0386 428.27 58.7271 425.595 56.1042C422.972 53.4288 421.66 49.6781 421.66 44.8519V25.9669H414.264V16.7604H415.051C417.149 16.7604 418.775 16.2096 419.929 15.108C421.083 14.0064 421.66 12.4064 421.66 10.3081V7.00317H431.969V16.7604H441.804V25.9669H431.969V44.3011C431.969 45.7175 432.205 46.924 432.677 47.9207C433.201 48.9174 433.988 49.6781 435.037 50.2026C436.139 50.7272 437.529 50.9895 439.208 50.9895C439.575 50.9895 439.995 50.9633 440.467 50.9108C440.991 50.8584 441.49 50.8059 441.962 50.7535V59.5665C441.227 59.6714 440.388 59.7763 439.444 59.8812C438.5 59.9861 437.634 60.0386 436.847 60.0386Z" fill="#2E3F85"/>
<path d="M377.121 59.5665V25.9669H369.567V16.7604H377.121V15.3441C377.121 12.0917 377.777 9.33759 379.088 7.08188C380.452 4.77371 382.341 3.01635 384.754 1.80981C387.167 0.60327 390.026 0 393.331 0C393.96 0 394.642 0.0524552 395.377 0.157371C396.164 0.209831 396.819 0.288519 397.344 0.393435V9.28513C396.819 9.18021 396.321 9.12775 395.849 9.12775C395.429 9.0753 395.036 9.04907 394.668 9.04907C392.36 9.04907 390.577 9.57365 389.318 10.6228C388.059 11.6195 387.429 13.1933 387.429 15.3441V16.7604H406.157V25.9669H387.429V59.5665H377.121ZM402.301 59.5665V16.7604H412.688V59.5665H402.301Z" fill="#2E3F85"/>
<path d="M336.171 59.5665V0H346.479V59.5665H336.171Z" fill="#2E3F85"/>
<path d="M307.443 60.5107C304.453 60.5107 301.857 60.0123 299.653 59.0156C297.45 58.0189 295.745 56.6026 294.539 54.7665C293.332 52.878 292.729 50.701 292.729 48.2354C292.729 45.8748 293.253 43.7765 294.303 41.9404C295.352 40.0519 296.978 38.4782 299.181 37.2192C301.385 35.9602 304.165 35.0684 307.522 34.5438L321.529 32.2619V40.1306L309.489 42.1765C307.443 42.5437 305.922 43.1994 304.925 44.1437C303.929 45.0879 303.43 46.3207 303.43 47.842C303.43 49.3108 303.981 50.4912 305.083 51.3829C306.237 52.2223 307.653 52.6419 309.332 52.6419C311.483 52.6419 313.371 52.196 314.997 51.3043C316.676 50.36 317.961 49.0748 318.853 47.4486C319.797 45.8224 320.27 44.0388 320.27 42.0978V31.0815C320.27 29.2455 319.535 27.7242 318.066 26.5177C316.65 25.2587 314.761 24.6292 312.401 24.6292C310.198 24.6292 308.23 25.2324 306.499 26.439C304.821 27.5931 303.588 29.1406 302.801 31.0815L294.381 26.9898C295.221 24.7341 296.532 22.7931 298.316 21.1669C300.152 19.4882 302.303 18.1768 304.768 17.2325C307.234 16.2883 309.909 15.8162 312.794 15.8162C316.309 15.8162 319.404 16.4719 322.079 17.7834C324.755 19.0424 326.827 20.8259 328.296 23.1341C329.817 25.3898 330.578 28.039 330.578 31.0815V59.5664H320.82V52.2485L323.024 52.0911C321.922 53.9272 320.61 55.4747 319.089 56.7337C317.568 57.9402 315.837 58.8845 313.896 59.5664C311.955 60.1959 309.804 60.5107 307.443 60.5107Z" fill="#2E3F85"/>
<path d="M251.751 59.5664V16.7604H261.429V25.18L260.642 23.6849C261.639 21.1145 263.265 19.1735 265.521 17.862C267.829 16.4981 270.504 15.8162 273.547 15.8162C276.695 15.8162 279.475 16.4981 281.888 17.862C284.353 19.226 286.268 21.1407 287.632 23.6062C288.996 26.0193 289.678 28.8258 289.678 32.0258V59.5664H279.37V34.4651C279.37 32.5766 279.003 30.9504 278.268 29.5865C277.534 28.2226 276.511 27.1734 275.2 26.439C273.941 25.6521 272.445 25.2587 270.714 25.2587C269.036 25.2587 267.541 25.6521 266.229 26.439C264.918 27.1734 263.895 28.2226 263.16 29.5865C262.426 30.9504 262.059 32.5766 262.059 34.4651V59.5664H251.751Z" fill="#2E3F85"/>
<path d="M225.284 60.5107C221.088 60.5107 217.258 59.5402 213.796 57.5993C210.386 55.6583 207.658 53.0092 205.613 49.6518C203.619 46.2945 202.622 42.465 202.622 38.1634C202.622 33.8618 203.619 30.0324 205.613 26.675C207.658 23.3177 210.386 20.6686 213.796 18.7276C217.206 16.7866 221.035 15.8162 225.284 15.8162C229.481 15.8162 233.284 16.7866 236.694 18.7276C240.104 20.6686 242.806 23.3177 244.799 26.675C246.845 29.9799 247.868 33.8094 247.868 38.1634C247.868 42.465 246.845 46.2945 244.799 49.6518C242.753 53.0092 240.025 55.6583 236.615 57.5993C233.206 59.5402 229.429 60.5107 225.284 60.5107ZM225.284 51.0682C227.593 51.0682 229.612 50.5174 231.343 49.4158C233.127 48.3141 234.517 46.7928 235.514 44.8519C236.563 42.8585 237.088 40.629 237.088 38.1634C237.088 35.6454 236.563 33.4422 235.514 31.5537C234.517 29.6127 233.127 28.0914 231.343 26.9898C229.612 25.8357 227.593 25.2587 225.284 25.2587C222.924 25.2587 220.852 25.8357 219.068 26.9898C217.285 28.0914 215.868 29.6127 214.819 31.5537C213.822 33.4422 213.324 35.6454 213.324 38.1634C213.324 40.629 213.822 42.8585 214.819 44.8519C215.868 46.7928 217.285 48.3141 219.068 49.4158C220.852 50.5174 222.924 51.0682 225.284 51.0682Z" fill="#2E3F85"/>
<path d="M188.462 59.5666V16.7605H198.77V59.5666H188.462ZM188.462 11.9606V0.944336H198.77V11.9606H188.462Z" fill="#2E3F85"/>
<path d="M161.839 76.8777C158.639 76.8777 155.675 76.3531 152.947 75.304C150.219 74.2548 147.859 72.786 145.865 70.8975C143.924 69.0614 142.508 66.8844 141.616 64.3664L151.216 60.7468C151.846 62.7402 153.078 64.3402 154.914 65.5467C156.803 66.8057 159.111 67.4352 161.839 67.4352C163.937 67.4352 165.773 67.0418 167.347 66.2549C168.973 65.468 170.232 64.3139 171.124 62.7926C172.016 61.3238 172.462 59.5402 172.462 57.4419V47.6846L174.429 50.0453C172.96 52.6157 170.993 54.5567 168.527 55.8681C166.062 57.1796 163.255 57.8353 160.108 57.8353C156.121 57.8353 152.554 56.9173 149.406 55.0813C146.259 53.2452 143.793 50.7272 142.01 47.5273C140.226 44.3273 139.334 40.7339 139.334 36.7471C139.334 32.7078 140.226 29.1144 142.01 25.9669C143.793 22.8194 146.233 20.3538 149.328 18.5702C152.423 16.7342 155.937 15.8162 159.872 15.8162C163.072 15.8162 165.878 16.4981 168.291 17.862C170.757 19.1735 172.803 21.0882 174.429 23.6062L173.013 26.2029V16.7604H182.77V57.4419C182.77 61.1664 181.852 64.4975 180.016 67.4352C178.232 70.3729 175.767 72.681 172.619 74.3597C169.524 76.0384 165.931 76.8777 161.839 76.8777ZM161.367 48.3141C163.57 48.3141 165.485 47.842 167.111 46.8977C168.79 45.901 170.101 44.5371 171.045 42.806C171.99 41.0749 172.462 39.0815 172.462 36.8257C172.462 34.6225 171.963 32.6553 170.967 30.9242C170.022 29.1406 168.711 27.7504 167.032 26.7537C165.406 25.757 163.518 25.2587 161.367 25.2587C159.216 25.2587 157.275 25.757 155.544 26.7537C153.813 27.7504 152.449 29.1406 151.452 30.9242C150.508 32.6553 150.036 34.6225 150.036 36.8257C150.036 39.029 150.508 40.9962 151.452 42.7273C152.449 44.4584 153.787 45.8224 155.465 46.8191C157.196 47.8158 159.163 48.3141 161.367 48.3141Z" fill="#2E3F85"/>
<path d="M117.12 60.5107C112.714 60.5107 108.858 59.514 105.553 57.5206C102.248 55.5272 99.678 52.8255 97.842 49.4158C96.0059 46.006 95.0879 42.229 95.0879 38.0847C95.0879 33.7832 96.0059 29.9799 97.842 26.675C99.7305 23.3177 102.275 20.6686 105.475 18.7276C108.727 16.7866 112.347 15.8162 116.334 15.8162C119.691 15.8162 122.629 16.367 125.147 17.4686C127.717 18.5702 129.894 20.0915 131.678 22.0325C133.461 23.9734 134.825 26.2029 135.769 28.7209C136.714 31.1865 137.186 33.8618 137.186 36.7471C137.186 37.4815 137.133 38.2421 137.028 39.029C136.976 39.8159 136.845 40.4978 136.635 41.0749H103.586V33.2061H130.812L125.933 36.9044C126.406 34.4913 126.274 32.3406 125.54 30.452C124.858 28.5635 123.704 27.0685 122.078 25.9669C120.504 24.8652 118.589 24.3144 116.334 24.3144C114.183 24.3144 112.268 24.8652 110.589 25.9669C108.911 27.016 107.625 28.5898 106.734 30.6881C105.894 32.734 105.58 35.2258 105.789 38.1634C105.58 40.7864 105.921 43.1207 106.812 45.1666C107.757 47.16 109.121 48.7076 110.904 49.8092C112.74 50.9108 114.838 51.4616 117.199 51.4616C119.56 51.4616 121.553 50.9633 123.179 49.9666C124.858 48.9699 126.169 47.6322 127.114 45.9535L135.455 50.0453C134.615 52.0911 133.304 53.9009 131.52 55.4747C129.737 57.0484 127.612 58.2812 125.147 59.173C122.733 60.0648 120.058 60.5107 117.12 60.5107Z" fill="#2E3F85"/>
<path d="M71.3225 59.5664V16.7603H81.0011V26.2815L80.2142 24.8652C81.2109 21.6652 82.7584 19.4357 84.8568 18.1767C87.0076 16.9177 89.578 16.2882 92.5682 16.2882H95.0862V25.416H91.3878C88.4502 25.416 86.0895 26.334 84.306 28.17C82.5224 29.9536 81.6306 32.4716 81.6306 35.724V59.5664H71.3225Z" fill="#2E3F85"/>
<circle cx="360.903" cy="53.2241" r="6.56187" fill="#D6FF32"/>
<path d="M28.3547 0C12.6948 0 0 12.4934 0 27.9046C0 38.4003 13.1516 62.4725 21.5411 76.7606C24.639 82.0367 32.0705 82.0367 35.1684 76.7606C43.558 62.4725 56.7097 38.4003 56.7097 27.9046C56.7097 12.4934 44.0149 0 28.3547 0ZM28.3547 39.1453C21.5497 39.1453 16.0331 33.7163 16.0331 27.0193C16.0331 20.3223 21.5497 14.8933 28.3547 14.8933C35.1598 14.8933 40.6764 20.3223 40.6764 27.0193C40.6764 33.7163 35.1598 39.1453 28.3547 39.1453Z" fill="#D6FF32"/>
<circle cx="28.3548" cy="26.3996" r="16.6218" fill="#D6FF32"/>
<circle cx="28.3549" cy="22.4878" r="6.84427" fill="#2E3F85"/>
<path d="M44.4973 31.7728C46.3258 31.1079 47.989 33.0864 47.0197 34.7735L30.3336 63.8144C29.5201 65.2302 27.469 65.2052 26.6902 63.77L11.3772 35.5488C10.4672 33.8716 12.0996 31.9537 13.9006 32.584L27.6519 37.397C28.1064 37.5561 28.6019 37.5531 29.0544 37.3885L44.4973 31.7728Z" fill="white"/>
<path d="M44.4973 31.7728C46.3258 31.1079 47.989 33.0864 47.0197 34.7735L30.3336 63.8144C29.5201 65.2302 27.469 65.2052 26.6902 63.77L11.3772 35.5488C10.4672 33.8716 12.0996 31.9537 13.9006 32.584L27.6519 37.397C28.1064 37.5561 28.6019 37.5531 29.0544 37.3885L44.4973 31.7728Z" fill="#2E3F85"/>
</svg>
