<svg width="255" height="191" viewBox="0 0 255 191" fill="none" xmlns="http://www.w3.org/2000/svg">
<path d="M125.77 0C104.612 0 87.4604 16.8797 87.4604 37.7017C87.4604 51.8824 105.229 84.4062 116.564 103.711C120.75 110.839 130.791 110.839 134.976 103.711C146.311 84.4062 164.08 51.8824 164.08 37.7017C164.08 16.8797 146.929 0 125.77 0ZM125.77 52.8889C116.576 52.8889 109.123 45.5538 109.123 36.5056C109.123 27.4574 116.576 20.1223 125.77 20.1223C134.965 20.1223 142.418 27.4574 142.418 36.5056C142.418 45.5538 134.965 52.8889 125.77 52.8889Z" fill="#D6FF32"/>
<circle cx="125.77" cy="35.6683" r="22.4576" fill="#D6FF32"/>
<circle cx="125.77" cy="30.3832" r="9.24725" fill="#2E3F85"/>
<path d="M147.58 42.9281C150.051 42.0297 152.298 44.7029 150.988 46.9823L128.444 86.2192C127.345 88.1321 124.574 88.0984 123.521 86.1592L102.832 48.0298C101.603 45.7637 103.808 43.1724 106.242 44.0241L124.821 50.5269C125.435 50.7418 126.104 50.7378 126.716 50.5154L147.58 42.9281Z" fill="#2B3B82"/>
<path d="M147.58 42.9281C150.051 42.0297 152.298 44.7029 150.988 46.9823L128.444 86.2192C127.345 88.1321 124.574 88.0984 123.521 86.1592L102.832 48.0298C101.603 45.7637 103.808 43.1724 106.242 44.0241L124.821 50.5269C125.435 50.7418 126.104 50.7378 126.716 50.5154L147.58 42.9281Z" fill="#2E3F85"/>
<path d="M250.669 179.217C247.36 179.217 244.788 178.318 242.953 176.519C241.154 174.684 240.255 172.112 240.255 168.802V155.851H235.182V149.538H235.722C237.161 149.538 238.276 149.16 239.068 148.404C239.859 147.649 240.255 146.552 240.255 145.113V142.846H247.324V149.538H254.069V155.851H247.324V168.424C247.324 169.396 247.486 170.223 247.809 170.907C248.169 171.59 248.709 172.112 249.428 172.472C250.184 172.831 251.137 173.011 252.288 173.011C252.54 173.011 252.828 172.993 253.152 172.957C253.511 172.921 253.853 172.885 254.177 172.849V178.893C253.673 178.965 253.098 179.037 252.45 179.109C251.803 179.181 251.209 179.217 250.669 179.217Z" fill="#2E3F85"/>
<path d="M209.711 178.893V155.851H204.53V149.538H209.711V148.566C209.711 146.336 210.16 144.447 211.06 142.9C211.995 141.317 213.29 140.112 214.945 139.285C216.6 138.457 218.56 138.044 220.827 138.044C221.259 138.044 221.726 138.08 222.23 138.152C222.77 138.188 223.219 138.242 223.579 138.314V144.411C223.219 144.339 222.877 144.303 222.554 144.303C222.266 144.267 221.996 144.249 221.744 144.249C220.161 144.249 218.938 144.609 218.075 145.329C217.211 146.012 216.78 147.091 216.78 148.566V149.538H229.623V155.851H216.78V178.893H209.711ZM226.979 178.893V149.538H234.102V178.893H226.979Z" fill="#2E3F85"/>
<path d="M181.628 178.893V138.044H188.697V178.893H181.628Z" fill="#2E3F85"/>
<path d="M161.927 179.541C159.876 179.541 158.096 179.199 156.585 178.515C155.074 177.832 153.905 176.861 153.077 175.601C152.25 174.306 151.836 172.813 151.836 171.123C151.836 169.504 152.196 168.065 152.915 166.806C153.635 165.511 154.75 164.431 156.261 163.568C157.772 162.704 159.679 162.093 161.981 161.733L171.586 160.168V165.565L163.33 166.968C161.927 167.219 160.884 167.669 160.2 168.317C159.517 168.964 159.175 169.81 159.175 170.853C159.175 171.86 159.553 172.67 160.308 173.281C161.1 173.857 162.071 174.145 163.222 174.145C164.697 174.145 165.992 173.839 167.107 173.227C168.259 172.58 169.14 171.698 169.752 170.583C170.399 169.468 170.723 168.245 170.723 166.914V159.359C170.723 158.1 170.219 157.056 169.212 156.229C168.241 155.366 166.946 154.934 165.327 154.934C163.816 154.934 162.467 155.348 161.279 156.175C160.128 156.967 159.283 158.028 158.743 159.359L152.969 156.553C153.545 155.006 154.444 153.675 155.667 152.56C156.926 151.408 158.401 150.509 160.092 149.861C161.783 149.214 163.618 148.89 165.596 148.89C168.007 148.89 170.129 149.34 171.964 150.239C173.799 151.103 175.22 152.326 176.227 153.909C177.27 155.456 177.792 157.272 177.792 159.359V178.893H171.101V173.875L172.612 173.767C171.856 175.026 170.957 176.087 169.913 176.951C168.87 177.778 167.683 178.426 166.352 178.893C165.021 179.325 163.546 179.541 161.927 179.541Z" fill="#2E3F85"/>
<path d="M123.734 178.893V149.538H130.371V155.312L129.832 154.286C130.515 152.524 131.63 151.193 133.177 150.293C134.76 149.358 136.595 148.89 138.682 148.89C140.84 148.89 142.747 149.358 144.402 150.293C146.092 151.229 147.405 152.542 148.341 154.232C149.276 155.887 149.744 157.812 149.744 160.006V178.893H142.675V161.679C142.675 160.384 142.423 159.269 141.919 158.334C141.416 157.398 140.714 156.679 139.815 156.175C138.951 155.635 137.926 155.366 136.739 155.366C135.588 155.366 134.562 155.635 133.663 156.175C132.764 156.679 132.062 157.398 131.559 158.334C131.055 159.269 130.803 160.384 130.803 161.679V178.893H123.734Z" fill="#2E3F85"/>
<path d="M105.584 179.541C102.706 179.541 100.08 178.875 97.7055 177.544C95.3671 176.213 93.4964 174.396 92.0934 172.094C90.7264 169.792 90.0428 167.165 90.0428 164.215C90.0428 161.266 90.7264 158.639 92.0934 156.337C93.4964 154.035 95.3671 152.218 97.7055 150.887C100.044 149.556 102.67 148.89 105.584 148.89C108.462 148.89 111.07 149.556 113.409 150.887C115.747 152.218 117.6 154.035 118.967 156.337C120.37 158.603 121.071 161.23 121.071 164.215C121.071 167.165 120.37 169.792 118.967 172.094C117.564 174.396 115.693 176.213 113.355 177.544C111.016 178.875 108.426 179.541 105.584 179.541ZM105.584 173.065C107.167 173.065 108.552 172.688 109.739 171.932C110.962 171.177 111.916 170.133 112.599 168.802C113.319 167.435 113.678 165.906 113.678 164.215C113.678 162.489 113.319 160.978 112.599 159.683C111.916 158.352 110.962 157.308 109.739 156.553C108.552 155.761 107.167 155.366 105.584 155.366C103.965 155.366 102.544 155.761 101.321 156.553C100.098 157.308 99.1265 158.352 98.407 159.683C97.7235 160.978 97.3817 162.489 97.3817 164.215C97.3817 165.906 97.7235 167.435 98.407 168.802C99.1265 170.133 100.098 171.177 101.321 171.932C102.544 172.688 103.965 173.065 105.584 173.065Z" fill="#2E3F85"/>
<path d="M80.3322 178.893V149.538H87.4012V178.893H80.3322ZM80.3322 146.246V138.691H87.4012V146.246H80.3322Z" fill="#2E3F85"/>
<path d="M62.0743 190.765C59.8799 190.765 57.8473 190.405 55.9766 189.686C54.1059 188.966 52.487 187.959 51.12 186.664C49.7889 185.405 48.8176 183.912 48.206 182.185L54.7894 179.703C55.2211 181.07 56.0665 182.167 57.3257 182.994C58.6208 183.858 60.2037 184.289 62.0743 184.289C63.5133 184.289 64.7725 184.02 65.8517 183.48C66.9669 182.94 67.8303 182.149 68.4419 181.106C69.0535 180.098 69.3593 178.875 69.3593 177.436V170.745L70.7083 172.364C69.701 174.127 68.352 175.458 66.6611 176.357C64.9703 177.256 63.0457 177.706 60.8872 177.706C58.1531 177.706 55.7068 177.076 53.5483 175.817C51.3898 174.558 49.699 172.831 48.4758 170.637C47.2527 168.442 46.6411 165.978 46.6411 163.244C46.6411 160.474 47.2527 158.01 48.4758 155.851C49.699 153.693 51.3718 152.002 53.4943 150.779C55.6169 149.52 58.0272 148.89 60.7253 148.89C62.9198 148.89 64.8444 149.358 66.4993 150.293C68.1901 151.193 69.5931 152.506 70.7083 154.232L69.737 156.013V149.538H76.4283V177.436C76.4283 179.99 75.7988 182.275 74.5396 184.289C73.3165 186.304 71.6257 187.887 69.4672 189.038C67.3447 190.189 64.8804 190.765 62.0743 190.765ZM61.7506 171.177C63.2615 171.177 64.5746 170.853 65.6898 170.205C66.841 169.522 67.7404 168.586 68.3879 167.399C69.0355 166.212 69.3593 164.845 69.3593 163.298C69.3593 161.787 69.0175 160.438 68.334 159.251C67.6864 158.028 66.7871 157.074 65.6359 156.391C64.5206 155.707 63.2255 155.366 61.7506 155.366C60.2756 155.366 58.9445 155.707 57.7574 156.391C56.5702 157.074 55.6348 158.028 54.9513 159.251C54.3038 160.438 53.98 161.787 53.98 163.298C53.98 164.809 54.3038 166.158 54.9513 167.345C55.6348 168.532 56.5522 169.468 57.7034 170.151C58.8906 170.835 60.2396 171.177 61.7506 171.177Z" fill="#2E3F85"/>
<path d="M31.4073 179.541C28.3854 179.541 25.7413 178.857 23.4748 177.49C21.2084 176.123 19.4457 174.27 18.1865 171.932C16.9274 169.594 16.2979 167.003 16.2979 164.161C16.2979 161.212 16.9274 158.603 18.1865 156.337C19.4816 154.035 21.2264 152.218 23.4209 150.887C25.6513 149.556 28.1336 148.89 30.8677 148.89C33.1701 148.89 35.1847 149.268 36.9115 150.023C38.6742 150.779 40.1672 151.822 41.3903 153.153C42.6135 154.484 43.5488 156.013 44.1964 157.74C44.8439 159.431 45.1677 161.266 45.1677 163.244C45.1677 163.748 45.1317 164.269 45.0598 164.809C45.0238 165.349 44.9339 165.816 44.79 166.212H22.1258V160.816H40.7968L37.4511 163.352C37.7749 161.697 37.6849 160.222 37.1813 158.927C36.7136 157.632 35.9222 156.607 34.8069 155.851C33.7277 155.096 32.4146 154.718 30.8677 154.718C29.3927 154.718 28.0796 155.096 26.9284 155.851C25.7772 156.571 24.8959 157.65 24.2843 159.089C23.7087 160.492 23.4928 162.201 23.6367 164.215C23.4928 166.014 23.7267 167.615 24.3382 169.018C24.9858 170.385 25.9211 171.446 27.1443 172.202C28.4034 172.957 29.8424 173.335 31.4613 173.335C33.0801 173.335 34.4472 172.993 35.5624 172.31C36.7136 171.626 37.613 170.709 38.2605 169.558L43.9805 172.364C43.4049 173.767 42.5056 175.008 41.2824 176.087C40.0593 177.166 38.6023 178.012 36.9115 178.623C35.2566 179.235 33.4219 179.541 31.4073 179.541Z" fill="#2E3F85"/>
<path d="M0 178.893V149.538H6.63737V156.067L6.09775 155.096C6.78127 152.901 7.84253 151.372 9.28152 150.509C10.7565 149.646 12.5193 149.214 14.5698 149.214H16.2966V155.473H13.7604C11.7458 155.473 10.1269 156.103 8.90379 157.362C7.68064 158.585 7.06907 160.312 7.06907 162.543V178.893H0Z" fill="#2E3F85"/>
<circle cx="199.589" cy="174.5" r="4.5" fill="#D6FF32"/>
</svg>
